<?xml version="1.0" encoding="UTF-8"?>
<svg id="Layer_2" xmlns="http://www.w3.org/2000/svg" viewBox="0 0 148.46 64">
  <defs>
    <style>
      .cls-1 {
        fill: #472e83;
      }
    </style>
  </defs>
  <g id="Layer_2-2" data-name="Layer_2">
    <g>
      <path class="cls-1" d="M71.67,64h-37.82C14.37,64,0,52.1,0,32,0,13.14,14.81,0,33.32,0s33.32,13.22,33.32,32c0,8.82-3.88,17.46-12.43,21.25v.18h17.46v10.58ZM33.32,51.3c10.49,0,19.04-8.55,19.04-19.3s-8.55-19.31-19.04-19.31S14.28,21.25,14.28,32s8.55,19.3,19.04,19.3Z"/>
      <path class="cls-1" d="M78.15,1.59h13.75v62.41h-13.75V1.59Z"/>
      <path class="cls-1" d="M98.39,1.59h24.16c12.78,0,23.54,4.41,23.54,18.95,0,8.73-4.67,15.52-13.49,17.1l15.87,26.36h-16.49l-13.05-24.95h-6.79v24.95h-13.75V1.59ZM112.14,27.42h8.11c5.03,0,11.55-.18,11.55-6.96,0-6.26-5.64-7.23-10.67-7.23h-8.99v14.19Z"/>
    </g>
  </g>
</svg>